<svg data-v-423bf9ae="" xmlns="http://www.w3.org/2000/svg" viewBox="0 0 485 90" class="iconLeft"><!----><!----><!----><g data-v-423bf9ae="" id="bd0c7071-0d59-40c7-9823-4852b6b0a505" fill="white" transform="matrix(4.942339234199546,0,0,4.942339234199546,161.09932827455185,11.490940620676248)"><path d="M8.41 1.26L8.41 1.26Q8.48 1.25 8.61 1.25L8.61 1.25L8.61 1.25Q8.85 1.25 8.97 1.34L8.97 1.34L8.97 1.34Q9.09 1.43 9.09 1.57L9.09 1.57L9.09 1.57Q9.09 1.78 8.86 1.98L8.86 1.98L8.86 1.98Q8.64 2.18 8.32 2.24L8.32 2.24L8.26 2.31L8.26 2.31Q8.13 2.44 7.97 2.74L7.97 2.74L7.97 2.74Q7.70 3.23 7.43 4.13L7.43 4.13L7.43 4.13Q7.08 5.39 6.82 7.53L6.82 7.53L6.82 7.53Q6.65 8.93 6.51 10.65L6.51 10.65L6.51 10.65Q6.50 10.75 6.50 10.96L6.50 10.96L6.50 10.96Q6.47 11.41 6.41 11.70L6.41 11.70L6.41 11.70Q6.36 11.98 6.20 12.18L6.20 12.18L6.20 12.18Q6.08 12.32 5.76 12.47L5.76 12.47L5.76 12.47Q5.45 12.61 5.18 12.61L5.18 12.61L5.18 12.61Q4.83 12.61 4.76 12.33L4.76 12.33L4.76 12.33Q4.45 11.30 4.02 9.31L4.02 9.31L4.02 9.31Q3.95 9.00 3.81 8.40L3.81 8.40L3.81 8.40Q3.67 7.80 3.56 7.35L3.56 7.35L3.18 5.91L3.18 5.91Q3.09 6.79 2.97 7.69L2.97 7.69L2.97 7.69Q2.74 9.30 2.48 10.37L2.48 10.37L2.48 10.37Q2.23 11.45 1.65 12.31L1.65 12.31L1.65 12.31Q1.50 12.54 1.23 12.69L1.23 12.69L1.23 12.69Q0.95 12.84 0.67 12.84L0.67 12.84L0.67 12.84Q0.48 12.84 0.31 12.76L0.31 12.76L0.31 12.76Q0.14 12.68 0.14 12.54L0.14 12.54L0.14 12.54Q0.14 12.45 0.20 12.38L0.20 12.38L0.20 12.38Q0.71 11.45 0.97 10.38L0.97 10.38L0.97 10.38Q1.23 9.31 1.46 7.73L1.46 7.73L1.46 7.73Q1.78 5.36 1.78 3.36L1.78 3.36L1.78 3.36Q1.78 2.55 1.75 2.14L1.75 2.14L1.75 2.14Q1.74 1.88 2.07 1.67L2.07 1.67L2.07 1.67Q2.41 1.47 2.77 1.47L2.77 1.47L2.77 1.47Q3.05 1.47 3.19 1.61L3.19 1.61L3.19 1.61Q3.51 1.93 3.69 2.33L3.69 2.33L3.69 2.33Q3.86 2.73 4.13 3.51L4.13 3.51L4.13 3.51Q4.48 4.52 5.01 6.57L5.01 6.57L5.01 6.57Q5.11 6.92 5.28 7.62L5.28 7.62L5.28 7.62Q5.33 7.18 5.47 6.29L5.47 6.29L5.47 6.29Q5.70 4.94 5.96 3.99L5.96 3.99L5.96 3.99Q6.22 3.04 6.82 2.22L6.82 2.22L6.82 2.22Q7.42 1.40 8.41 1.26L8.41 1.26ZM12.50 5.07L12.50 5.07Q11.79 5.61 11.34 6.83L11.34 6.83L11.34 6.83Q12.71 6.31 13.82 5.96L13.82 5.96L13.82 5.96Q13.36 5.32 12.88 5.10L12.88 5.10L12.88 5.10Q12.78 5.05 12.69 5.04L12.69 5.04L12.69 5.04Q12.60 5.03 12.59 5.03L12.59 5.03L12.59 5.03Q12.60 5.04 12.56 5.05L12.56 5.05L12.56 5.05Q12.53 5.07 12.50 5.07L12.50 5.07ZM12.56 4.07L12.56 4.07Q12.78 4.02 13.03 4.02L13.03 4.02L13.03 4.02Q14.38 4.02 15.47 5.82L15.47 5.82L15.47 5.82Q15.51 5.88 15.51 5.96L15.51 5.96L15.51 5.96Q15.51 6.12 15.32 6.29L15.32 6.29L15.32 6.29Q15.16 6.45 14.92 6.55L14.92 6.55L14.92 6.55Q13.52 7.17 11.03 8.02L11.03 8.02L11.03 8.02Q10.89 8.74 10.89 9.49L10.89 9.49L10.89 9.49Q10.89 9.84 10.91 10.00L10.91 10.00L10.91 10.00Q10.93 10.63 11.16 11.09L11.16 11.09L11.16 11.09Q11.23 11.24 11.36 11.38L11.36 11.38L11.36 11.38Q11.49 11.52 11.56 11.56L11.56 11.56L11.56 11.56Q11.61 11.59 11.70 11.59L11.70 11.59L11.70 11.59Q11.80 11.59 11.93 11.54L11.93 11.54L11.93 11.54Q12.07 11.48 12.24 11.38L12.24 11.38L12.24 11.38Q12.64 11.14 12.99 10.84L12.99 10.84L12.99 10.84Q13.34 10.53 13.83 10.04L13.83 10.04L13.83 10.04Q14.03 9.84 14.49 9.84L14.49 9.84L14.49 9.84Q14.74 9.84 14.92 9.92L14.92 9.92L14.92 9.92Q15.09 10.00 15.09 10.14L15.09 10.14L15.09 10.14Q15.09 10.26 14.95 10.42L14.95 10.42L14.95 10.42Q14.08 11.35 13.17 12.01L13.17 12.01L13.17 12.01Q12.26 12.67 11.35 12.67L11.35 12.67L11.35 12.67Q10.92 12.67 10.54 12.49L10.54 12.49L10.54 12.49Q9.91 12.19 9.63 11.55L9.63 11.55L9.63 11.55Q9.35 10.91 9.35 10.04L9.35 10.04L9.35 10.04Q9.35 9.39 9.52 8.53L9.52 8.53L9.41 8.55L9.30 8.60L9.30 8.60Q9.09 8.67 8.96 8.67L8.96 8.67L8.96 8.67Q8.76 8.67 8.65 8.57L8.65 8.57L8.65 8.57Q8.54 8.47 8.54 8.32L8.54 8.32L8.54 8.32Q8.54 8.13 8.69 7.96L8.69 7.96L8.69 7.96Q8.83 7.78 9.13 7.67L9.13 7.67L9.81 7.41L9.81 7.41Q9.94 7.01 10.19 6.38L10.19 6.38L10.19 6.38Q10.58 5.52 11.17 4.89L11.17 4.89L11.17 4.89Q11.76 4.26 12.56 4.07L12.56 4.07ZM20.97 9.49L20.97 9.49Q21.07 9.39 21.28 9.34L21.28 9.34L21.28 9.34Q21.49 9.28 21.70 9.28L21.70 9.28L21.70 9.28Q22.22 9.28 22.22 9.55L22.22 9.55L22.22 9.55Q22.22 9.67 22.08 9.83L22.08 9.83L22.08 9.83Q21.91 10.02 21.77 10.20L21.77 10.20L21.77 10.20Q21.63 10.37 21.52 10.51L21.52 10.51L21.52 10.51Q20.90 11.31 20.41 11.78L20.41 11.78L20.41 11.78Q19.92 12.25 19.26 12.46L19.26 12.46L19.26 12.46Q18.96 12.56 18.61 12.56L18.61 12.56L18.61 12.56Q18.02 12.56 17.61 12.22L17.61 12.22L17.61 12.22Q17.19 11.89 17.12 11.24L17.12 11.24L17.12 11.24Q17.09 11.06 17.09 10.68L17.09 10.68L17.09 10.68Q17.09 9.95 17.26 9.20L17.26 9.20L17.26 9.20Q17.43 8.44 17.75 7.31L17.75 7.31L17.92 6.71L17.39 6.76L17.39 6.76Q17.00 6.79 16.32 6.87L16.32 6.87L16.32 6.87Q16.00 6.92 15.83 6.80L15.83 6.80L15.83 6.80Q15.67 6.69 15.67 6.51L15.67 6.51L15.67 6.51Q15.67 6.30 15.87 6.10L15.87 6.10L15.87 6.10Q16.07 5.89 16.39 5.87L16.39 5.87L18.20 5.66L18.20 5.66Q18.82 3.39 19.59 1.20L19.59 1.20L19.59 1.20Q19.66 1.01 19.97 0.86L19.97 0.86L19.97 0.86Q20.29 0.71 20.58 0.71L20.58 0.71L20.58 0.71Q20.76 0.71 20.88 0.78L20.88 0.78L20.88 0.78Q21 0.85 21 0.99L21 0.99L21 0.99Q21 1.04 20.97 1.15L20.97 1.15L20.97 1.15Q20.16 3.43 19.61 5.50L19.61 5.50L19.61 5.50Q20.59 5.40 20.92 5.40L20.92 5.40L20.92 5.40Q21.32 5.40 21.32 5.64L21.32 5.64L21.32 5.64Q21.32 5.84 21.08 6.07L21.08 6.07L21.08 6.07Q20.85 6.30 20.59 6.36L20.59 6.36L20.59 6.36Q19.75 6.50 19.33 6.55L19.33 6.55L19.33 6.55Q19.10 7.50 18.91 8.41L18.91 8.41L18.91 8.41Q18.89 8.53 18.72 9.23L18.72 9.23L18.72 9.23Q18.55 9.94 18.55 10.56L18.55 10.56L18.55 10.56Q18.55 11.35 18.97 11.42L18.97 11.42L18.97 11.42Q19.24 11.47 19.58 11.12L19.58 11.12L19.58 11.12Q19.92 10.78 20.47 10.09L20.47 10.09L20.47 10.09Q20.80 9.66 20.97 9.49L20.97 9.49ZM29.55 7.81L29.55 7.81Q30.44 8.58 30.44 9.39L30.44 9.39L30.44 9.39Q30.44 9.93 30.07 10.46L30.07 10.46L30.07 10.46Q28.78 12.31 27.05 12.74L27.05 12.74L27.05 12.74Q26.60 12.85 26.04 12.85L26.04 12.85L26.04 12.85Q24.72 12.85 23.52 12.19L23.52 12.19L23.52 12.19Q22.95 11.89 22.72 11.40L22.72 11.40L22.72 11.40Q22.50 10.91 22.50 10.23L22.50 10.23L22.50 10.23Q22.50 9.76 22.61 8.86L22.61 8.86L22.61 8.86Q22.65 8.62 23.00 8.62L23.00 8.62L23.00 8.62Q23.39 8.62 23.80 8.88L23.80 8.88L23.80 8.88Q24.21 9.13 24.16 9.44L24.16 9.44L24.16 9.44Q24.15 9.55 24.09 9.93L24.09 9.93L24.09 9.93Q24.04 10.32 24.04 10.64L24.04 10.64L24.04 10.64Q24.04 11.37 24.39 11.62L24.39 11.62L24.39 11.62Q24.74 11.87 25.30 11.87L25.30 11.87L25.30 11.87Q25.86 11.87 26.46 11.63L26.46 11.63L26.46 11.63Q26.92 11.45 27.49 11.03L27.49 11.03L27.49 11.03Q28.06 10.61 28.45 10.08L28.45 10.08L28.45 10.08Q28.85 9.55 28.85 9.04L28.85 9.04L28.85 9.04Q28.85 8.64 28.57 8.30L28.57 8.30L28.57 8.30Q28.29 7.98 27.78 7.69L27.78 7.69L27.78 7.69Q27.27 7.39 26.43 7L26.43 7L26.43 7Q25.40 6.51 24.77 6.14L24.77 6.14L24.77 6.14Q24.15 5.77 23.70 5.26L23.70 5.26L23.70 5.26Q23.25 4.75 23.25 4.10L23.25 4.10L23.25 4.10Q23.25 3.81 23.32 3.58L23.32 3.58L23.32 3.58Q23.66 2.32 24.98 1.77L24.98 1.77L24.98 1.77Q26.31 1.22 27.85 1.22L27.85 1.22L27.85 1.22Q28.52 1.22 29.02 1.30L29.02 1.30L29.02 1.30Q29.53 1.39 29.86 1.67L29.86 1.67L29.86 1.67Q30.24 1.97 30.24 2.53L30.24 2.53L30.24 2.53Q30.24 2.87 30.13 3.20L30.13 3.20L30.13 3.20Q30.03 3.53 29.82 4.09L29.82 4.09L29.82 4.09Q29.67 4.47 29.64 4.55L29.64 4.55L29.64 4.55Q29.55 4.79 29.18 4.79L29.18 4.79L29.18 4.79Q28.80 4.79 28.43 4.58L28.43 4.58L28.43 4.58Q28.07 4.37 28.07 4.10L28.07 4.10L28.07 4.10Q28.07 4.03 28.08 3.99L28.08 3.99L28.29 3.39L28.29 3.39Q28.43 3.00 28.49 2.80L28.49 2.80L28.59 2.21L28.59 2.21L28.59 2.21Q26.82 2.18 25.77 2.93L25.77 2.93L25.77 2.93Q25.35 3.21 25.12 3.58L25.12 3.58L25.12 3.58Q24.89 3.95 24.89 4.33L24.89 4.33L24.89 4.33Q24.89 4.98 25.55 5.46L25.55 5.46L25.55 5.46Q26.03 5.80 26.61 6.09L26.61 6.09L26.61 6.09Q27.19 6.38 27.31 6.45L27.31 6.45L27.31 6.45Q28.13 6.86 28.62 7.14L28.62 7.14L28.62 7.14Q29.12 7.42 29.55 7.81L29.55 7.81ZM34.66 5.07L34.66 5.07Q33.95 5.61 33.50 6.83L33.50 6.83L33.50 6.83Q34.87 6.31 35.98 5.96L35.98 5.96L35.98 5.96Q35.52 5.32 35.04 5.10L35.04 5.10L35.04 5.10Q34.94 5.05 34.85 5.04L34.85 5.04L34.85 5.04Q34.76 5.03 34.75 5.03L34.75 5.03L34.75 5.03Q34.76 5.04 34.73 5.05L34.73 5.05L34.73 5.05Q34.69 5.07 34.66 5.07L34.66 5.07ZM34.72 4.07L34.72 4.07Q34.94 4.02 35.20 4.02L35.20 4.02L35.20 4.02Q36.54 4.02 37.63 5.82L37.63 5.82L37.63 5.82Q37.67 5.88 37.67 5.96L37.67 5.96L37.67 5.96Q37.67 6.12 37.48 6.29L37.48 6.29L37.48 6.29Q37.32 6.45 37.09 6.55L37.09 6.55L37.09 6.55Q35.69 7.17 33.19 8.02L33.19 8.02L33.19 8.02Q33.05 8.74 33.05 9.49L33.05 9.49L33.05 9.49Q33.05 9.84 33.07 10.00L33.07 10.00L33.07 10.00Q33.10 10.63 33.32 11.09L33.32 11.09L33.32 11.09Q33.39 11.24 33.52 11.38L33.52 11.38L33.52 11.38Q33.66 11.52 33.73 11.56L33.73 11.56L33.73 11.56Q33.77 11.59 33.87 11.59L33.87 11.59L33.87 11.59Q33.96 11.59 34.10 11.54L34.10 11.54L34.10 11.54Q34.23 11.48 34.40 11.38L34.40 11.38L34.40 11.38Q34.80 11.14 35.15 10.84L35.15 10.84L35.15 10.84Q35.50 10.53 35.99 10.04L35.99 10.04L35.99 10.04Q36.19 9.84 36.65 9.84L36.65 9.84L36.65 9.84Q36.90 9.84 37.08 9.92L37.08 9.92L37.08 9.92Q37.25 10.00 37.25 10.14L37.25 10.14L37.25 10.14Q37.25 10.26 37.11 10.42L37.11 10.42L37.11 10.42Q36.25 11.35 35.34 12.01L35.34 12.01L35.34 12.01Q34.43 12.67 33.52 12.67L33.52 12.67L33.52 12.67Q33.08 12.67 32.70 12.49L32.70 12.49L32.70 12.49Q32.07 12.19 31.79 11.55L31.79 11.55L31.79 11.55Q31.51 10.91 31.51 10.04L31.51 10.04L31.51 10.04Q31.51 9.39 31.68 8.53L31.68 8.53L31.57 8.55L31.46 8.60L31.46 8.60Q31.25 8.67 31.12 8.67L31.12 8.67L31.12 8.67Q30.93 8.67 30.81 8.57L30.81 8.57L30.81 8.57Q30.70 8.47 30.70 8.32L30.70 8.32L30.70 8.32Q30.70 8.13 30.85 7.96L30.85 7.96L30.85 7.96Q31.00 7.78 31.29 7.67L31.29 7.67L31.98 7.41L31.98 7.41Q32.10 7.01 32.35 6.38L32.35 6.38L32.35 6.38Q32.75 5.52 33.33 4.89L33.33 4.89L33.33 4.89Q33.92 4.26 34.72 4.07L34.72 4.07ZM41.71 3.88L41.71 3.88Q42.11 3.71 42.45 3.71L42.45 3.71L42.45 3.71Q42.81 3.71 43.04 3.90L43.04 3.90L43.04 3.90Q43.26 4.09 43.26 4.51L43.26 4.51L43.26 4.51Q43.26 4.91 43.13 5.39L43.13 5.39L43.13 5.39Q43.01 5.87 42.78 6.51L42.78 6.51L42.59 7.10L42.59 7.10Q42.50 7.36 42.15 7.55L42.15 7.55L42.15 7.55Q41.80 7.73 41.48 7.73L41.48 7.73L41.48 7.73Q41.27 7.73 41.17 7.64L41.17 7.64L41.17 7.64Q41.06 7.55 41.12 7.36L41.12 7.36L41.12 7.36Q41.37 6.58 41.62 5.63L41.62 5.63L41.62 5.63Q41.68 5.19 41.71 5.05L41.71 5.05L41.65 5.11L41.65 5.11Q40.57 6.03 39.68 7.43L39.68 7.43L39.68 7.43Q39.27 9.66 39.17 11.90L39.17 11.90L39.17 11.90Q39.16 12.17 38.82 12.37L38.82 12.37L38.82 12.37Q38.47 12.57 38.11 12.57L38.11 12.57L38.11 12.57Q37.90 12.57 37.76 12.47L37.76 12.47L37.76 12.47Q37.62 12.38 37.63 12.18L37.63 12.18L37.63 12.18Q37.74 10.16 38.07 8.26L38.07 8.26L38.07 8.26Q37.93 8.16 37.93 8.04L37.93 8.04L37.93 8.04Q37.93 7.95 37.98 7.85L37.98 7.85L38.19 7.50L38.19 7.50Q38.50 5.89 38.95 4.27L38.95 4.27L38.95 4.27Q39.02 4.02 39.39 3.83L39.39 3.83L39.39 3.83Q39.76 3.64 40.10 3.64L40.10 3.64L40.10 3.64Q40.31 3.64 40.42 3.72L40.42 3.72L40.42 3.72Q40.53 3.81 40.47 3.98L40.47 3.98L40.47 3.98Q40.25 4.76 40.19 5.01L40.19 5.01L40.19 5.01Q41.03 4.17 41.71 3.88L41.71 3.88ZM48.08 4.09L48.08 4.09Q48.17 3.95 48.48 3.84L48.48 3.84L48.48 3.84Q48.78 3.74 49.04 3.74L49.04 3.74L49.04 3.74Q49.24 3.74 49.36 3.79L49.36 3.79L49.36 3.79Q49.48 3.85 49.48 3.98L49.48 3.98L49.48 3.98Q49.48 4.07 49.41 4.19L49.41 4.19L49.41 4.19Q48.26 6.10 47.48 7.99L47.48 7.99L47.48 7.99Q46.70 9.87 46.28 11.89L46.28 11.89L46.28 11.89Q46.23 12.15 45.88 12.37L45.88 12.37L45.88 12.37Q45.54 12.59 45.21 12.59L45.21 12.59L45.21 12.59Q44.83 12.59 44.73 12.29L44.73 12.29L44.73 12.29Q44.20 10.72 43.98 9.09L43.98 9.09L43.98 9.09Q43.76 7.46 43.58 4.87L43.58 4.87L43.57 4.58L43.57 4.58Q43.55 4.27 43.94 4.03L43.94 4.03L43.94 4.03Q44.32 3.79 44.70 3.79L44.70 3.79L44.70 3.79Q45.07 3.79 45.08 4.05L45.08 4.05L45.08 4.05Q45.11 4.38 45.11 4.58L45.11 4.58L45.11 4.62L45.11 4.62Q45.26 7.29 45.56 8.96L45.56 8.96L45.56 8.96Q46.52 6.19 48.08 4.09L48.08 4.09ZM51.83 1.71L51.83 1.71Q51.67 1.67 51.52 1.67L51.52 1.67L51.52 1.67Q51.21 1.67 50.97 1.82L50.97 1.82L50.97 1.82Q50.67 1.99 50.62 2.16L50.62 2.16L50.62 2.16Q50.44 2.81 50.39 3.02L50.39 3.02L50.39 3.07L50.39 3.07Q50.39 3.14 50.44 3.20L50.44 3.20L50.44 3.20Q50.50 3.26 50.57 3.29L50.57 3.29L50.57 3.29Q50.68 3.35 50.82 3.35L50.82 3.35L50.82 3.35Q51.04 3.35 51.36 3.21L51.36 3.21L51.36 3.21Q51.67 3.08 51.77 2.84L51.77 2.84L51.77 2.84Q51.86 2.60 52.01 2.00L52.01 2.00L52.01 1.97L52.01 1.97Q52.01 1.90 51.95 1.83L51.95 1.83L51.95 1.83Q51.90 1.75 51.83 1.71L51.83 1.71ZM51.74 4.30L51.28 7.32L51.28 7.32Q51.20 7.88 50.97 9.35L50.97 9.35L50.97 9.35Q50.74 10.81 50.58 12.00L50.58 12.00L50.58 12.00Q50.54 12.26 50.21 12.45L50.21 12.45L50.21 12.45Q49.88 12.64 49.55 12.64L49.55 12.64L49.55 12.64Q49.32 12.64 49.20 12.55L49.20 12.55L49.20 12.55Q49.08 12.46 49.11 12.28L49.11 12.28L49.11 12.28Q49.35 10.88 49.62 9.08L49.62 9.08L49.62 9.08Q49.90 7.28 50.01 6.51L50.01 6.51L50.30 4.59L50.30 4.59Q50.34 4.34 50.69 4.16L50.69 4.16L50.69 4.16Q51.03 3.98 51.35 3.98L51.35 3.98L51.35 3.98Q51.55 3.98 51.66 4.06L51.66 4.06L51.66 4.06Q51.77 4.14 51.74 4.30L51.74 4.30ZM57.13 3.47L57.13 3.47Q57.20 3.28 57.50 3.13L57.50 3.13L57.50 3.13Q57.79 2.98 58.09 2.98L58.09 2.98L58.09 2.98Q58.51 2.98 58.51 3.28L58.51 3.28L58.51 3.28Q58.51 3.32 58.48 3.43L58.48 3.43L58.48 3.43Q57.88 5.47 57.41 6.55L57.41 6.55L57.41 6.55Q57.33 6.76 57.03 6.91L57.03 6.91L57.03 6.91Q56.73 7.06 56.43 7.06L56.43 7.06L56.43 7.06Q56.08 7.06 56.03 6.82L56.03 6.82L56.03 6.82Q55.78 5.70 55.24 5.70L55.24 5.70L55.24 5.70Q54.99 5.70 54.68 5.96L54.68 5.96L54.68 5.96Q54.01 6.58 53.63 7.63L53.63 7.63L53.63 7.63Q53.24 8.68 53.24 9.63L53.24 9.63L53.24 9.63Q53.24 10.33 53.48 10.88L53.48 10.88L53.48 10.88Q53.72 11.44 54.28 11.58L54.28 11.58L54.28 11.58Q54.36 11.61 54.54 11.61L54.54 11.61L54.54 11.61Q55.01 11.61 55.46 11.26L55.46 11.26L55.46 11.26Q55.92 10.92 56.21 10.55L56.21 10.55L56.21 10.55Q56.50 10.18 56.97 9.53L56.97 9.53L56.97 9.53Q57.08 9.38 57.32 9.29L57.32 9.29L57.32 9.29Q57.55 9.20 57.79 9.20L57.79 9.20L57.79 9.20Q58.02 9.20 58.15 9.28L58.15 9.28L58.15 9.28Q58.28 9.35 58.28 9.51L58.28 9.51L58.28 9.51Q58.28 9.65 58.18 9.80L58.18 9.80L58.18 9.80Q57.44 10.96 56.38 11.81L56.38 11.81L56.38 11.81Q55.31 12.66 54.14 12.66L54.14 12.66L54.14 12.66Q53.90 12.66 53.66 12.61L53.66 12.61L53.66 12.61Q52.72 12.46 52.26 11.70L52.26 11.70L52.26 11.70Q51.80 10.93 51.80 9.93L51.80 9.93L51.80 9.93Q51.80 9.56 51.87 9.14L51.87 9.14L51.87 9.14Q52.09 7.80 52.77 6.63L52.77 6.63L52.77 6.63Q53.44 5.46 54.53 4.91L54.53 4.91L54.53 4.91Q55.08 4.65 55.62 4.65L55.62 4.65L55.62 4.65Q56.14 4.65 56.57 4.93L56.57 4.93L57.13 3.47ZM62.33 5.07L62.33 5.07Q61.61 5.61 61.17 6.83L61.17 6.83L61.17 6.83Q62.54 6.31 63.64 5.96L63.64 5.96L63.64 5.96Q63.18 5.32 62.71 5.10L62.71 5.10L62.71 5.10Q62.61 5.05 62.52 5.04L62.52 5.04L62.52 5.04Q62.43 5.03 62.41 5.03L62.41 5.03L62.41 5.03Q62.43 5.04 62.39 5.05L62.39 5.05L62.39 5.05Q62.36 5.07 62.33 5.07L62.33 5.07ZM62.38 4.07L62.38 4.07Q62.61 4.02 62.86 4.02L62.86 4.02L62.86 4.02Q64.20 4.02 65.30 5.82L65.30 5.82L65.30 5.82Q65.34 5.88 65.34 5.96L65.34 5.96L65.34 5.96Q65.34 6.12 65.14 6.29L65.14 6.29L65.14 6.29Q64.99 6.45 64.75 6.55L64.75 6.55L64.75 6.55Q63.35 7.17 60.86 8.02L60.86 8.02L60.86 8.02Q60.72 8.74 60.72 9.49L60.72 9.49L60.72 9.49Q60.72 9.84 60.73 10.00L60.73 10.00L60.73 10.00Q60.76 10.63 60.98 11.09L60.98 11.09L60.98 11.09Q61.05 11.24 61.19 11.38L61.19 11.38L61.19 11.38Q61.32 11.52 61.39 11.56L61.39 11.56L61.39 11.56Q61.43 11.59 61.53 11.59L61.53 11.59L61.53 11.59Q61.63 11.59 61.76 11.54L61.76 11.54L61.76 11.54Q61.89 11.48 62.06 11.38L62.06 11.38L62.06 11.38Q62.47 11.14 62.82 10.84L62.82 10.84L62.82 10.84Q63.17 10.53 63.66 10.04L63.66 10.04L63.66 10.04Q63.85 9.84 64.32 9.84L64.32 9.84L64.32 9.84Q64.57 9.84 64.74 9.92L64.74 9.92L64.74 9.92Q64.92 10.00 64.92 10.14L64.92 10.14L64.92 10.14Q64.92 10.26 64.78 10.42L64.78 10.42L64.78 10.42Q63.91 11.35 63 12.01L63 12.01L63 12.01Q62.09 12.67 61.18 12.67L61.18 12.67L61.18 12.67Q60.75 12.67 60.37 12.49L60.37 12.49L60.37 12.49Q59.74 12.19 59.46 11.55L59.46 11.55L59.46 11.55Q59.18 10.91 59.18 10.04L59.18 10.04L59.18 10.04Q59.18 9.39 59.35 8.53L59.35 8.53L59.23 8.55L59.12 8.60L59.12 8.60Q58.91 8.67 58.79 8.67L58.79 8.67L58.79 8.67Q58.59 8.67 58.48 8.57L58.48 8.57L58.48 8.57Q58.37 8.47 58.37 8.32L58.37 8.32L58.37 8.32Q58.37 8.13 58.51 7.96L58.51 7.96L58.51 7.96Q58.66 7.78 58.95 7.67L58.95 7.67L59.64 7.41L59.64 7.41Q59.77 7.01 60.02 6.38L60.02 6.38L60.02 6.38Q60.41 5.52 61.00 4.89L61.00 4.89L61.00 4.89Q61.59 4.26 62.38 4.07L62.38 4.07Z"></path></g><!----><g data-v-423bf9ae="" id="b3d9ffbc-469f-470c-bbcb-23584f480cb6" transform="matrix(1.5671524606188592,0,0,1.5671524606188592,-6.460854978442441,-30.099740322144342)" stroke="none" fill="white"><path d="M4.523 38.516L25.1 54.501 25.056 77l16.407-10.872-5.798-5.514L58.439 77 95 19.571 4.523 38.516zm82.36-13.524L36.895 56.918 28.743 70.77l.127-17.597 58.013-28.181z"></path></g><!----></svg>